<svg width="55" height="14" fill="none" xmlns="http://www.w3.org/2000/svg"><path d="M10.32 13.084H8.624L2.182 3.223v9.861H.485V.287h1.697l6.46 9.905V.287h1.678v12.797zm10.222-3.34h-5.361l-1.204 3.34h-1.74L17.122.287H18.6l4.895 12.797h-1.731l-1.222-3.34zM15.69 8.355h4.351l-2.18-5.985-2.17 5.985zm12.99 2.488L32.338.287h1.846l-4.747 12.797h-1.494L23.205.287h1.837l3.639 10.556zm13.624-1.099h-5.362l-1.204 3.34h-1.74L38.885.287h1.476l4.896 12.797h-1.732l-1.221-3.34zm-4.852-1.389h4.35L39.624 2.37l-2.17 5.985zm17.227-6.68h-4.114v11.409h-1.678V1.676h-4.105V.287h9.897v1.389z" fill="#fff"/></svg>